<svg width="917" height="145" viewBox="0 0 917 145" fill="none" xmlns="http://www.w3.org/2000/svg">
<path d="M296.66 33.8203H280.55V116.71H296.66V33.8203Z" fill="#2A3362"/>
<path d="M359.01 87.2998C359.01 98.7398 351.65 103.88 341.85 103.88C332.05 103.88 325.5 98.7398 325.5 87.8798V58.3398H309.39V91.6198C309.39 108.19 319.78 117.88 337.06 117.88C347.92 117.88 353.99 113.88 358.06 109.36H359L360.4 116.72H375.22V58.3398H359.01V87.2998Z" fill="#2A3362"/>
<path d="M517.04 105.16C505.25 105.16 498.6 99.7899 497.55 91.9699H548.68C548.916 90.3439 549.033 88.7029 549.03 87.0599C548.92 66.0599 533.03 57.1699 516.03 57.1699C496.3 57.1699 481.47 68.9699 481.47 87.9999C481.47 106.09 495.72 117.88 517.08 117.88C534.95 117.88 546.85 109.95 549.31 97.7999H533.39C531.4 102.59 525.68 105.16 517.04 105.16ZM516.04 69.8999C526.32 69.8999 532.27 74.4499 533.21 80.8999H497.9C499.41 74.7199 505.37 69.8999 515.99 69.8999H516.04Z" fill="#2A3362"/>
<path d="M576.4 66.7206H575.4L573.88 58.3105H559.24V116.721H575.35V91.6205C575.35 80.2905 581.88 73.9905 594.03 73.9905C596.237 73.9599 598.442 74.1542 600.61 74.5705V58.3406H598.36C587.62 58.3406 580.95 60.5606 576.4 66.7206Z" fill="#2A3362"/>
<path d="M679.71 98.4998H678.78L665 61.9598H648.42L634.88 98.3898H633.83L620.99 58.3398H604.99L624.72 116.72H642.24L656.25 79.4698H657.18L670.96 116.72H688.59L708.32 58.3398H692.32L679.71 98.4998Z" fill="#2A3362"/>
<path d="M772.44 99.7216V80.1816C772.44 64.3016 759.01 57.1816 742.31 57.1816C724.57 57.1816 713.48 65.5916 711.96 78.1816H728.07C729.24 72.6916 733.91 69.6616 742.31 69.6616C750.71 69.6616 756.31 72.8116 756.31 79.2316V80.7216L730.04 82.7216C717.9 83.6616 709.04 89.0316 709.04 100.472C709.04 112.262 719.2 117.862 734.14 117.862C746.2 117.862 753.55 114.502 758.05 109.432H758.85C761.38 115.132 766.51 116.702 772.09 116.702H778.86V104.812H777.34C773.95 104.812 772.44 103.182 772.44 99.7216ZM756.32 93.5316C756.32 102.762 745.32 105.792 735.89 105.792C729.47 105.792 725.27 104.162 725.27 99.7216C725.27 95.7216 728.89 93.7716 734.27 93.3016L756.33 91.6716L756.32 93.5316Z" fill="#2A3362"/>
<path d="M832 58.3398L813.2 100.61H812.15L793.12 58.3398H775.72L802.92 116.72H822.19L849.27 58.3398H832Z" fill="#2A3362"/>
<path d="M900.77 97.7999C898.77 102.59 893.06 105.16 884.42 105.16C872.63 105.16 865.98 99.7899 864.93 91.9699H916.06C916.296 90.3439 916.413 88.7029 916.41 87.0599C916.3 66.0599 900.41 57.1699 883.41 57.1699C863.68 57.1699 848.86 68.9699 848.86 87.9999C848.86 106.09 863.1 117.88 884.46 117.88C902.33 117.88 914.23 109.95 916.69 97.7999H900.77ZM883.37 69.8999C893.65 69.8999 899.6 74.4499 900.54 80.8999H865.24C866.77 74.7199 872.71 69.8999 883.33 69.8999H883.37Z" fill="#2A3362"/>
<path d="M254.37 54.0398C254.37 48.8998 257.99 46.6898 262.66 46.6898C264.832 46.71 266.991 47.0228 269.08 47.6198L271.77 35.9398C267.871 34.5609 263.766 33.8509 259.63 33.8398C247.72 33.8398 238.15 40.1498 238.15 53.2198V58.3398H224.25V71.1298H238.15V116.72H254.37V71.1198H272.53V58.3398H254.37V54.0398Z" fill="#2A3362"/>
<path d="M410.77 41.8809H395.77L394.93 58.3409H382.25V71.1309H394.63V99.9109C394.63 109.711 399.63 117.911 414.63 117.911C418.519 117.911 422.396 117.482 426.19 116.631V104.341C424.002 104.831 421.771 105.106 419.53 105.161C411.48 105.161 410.78 100.611 410.78 97.1009V71.1009H426.78V58.3409H410.77V41.8809Z" fill="#2A3362"/>
<path d="M461.36 41.8809H446.41L445.57 58.3409H432.86V71.1309H445.24V99.9109C445.24 109.711 450.24 117.911 465.24 117.911C469.12 117.899 472.986 117.459 476.77 116.601V104.341C474.582 104.831 472.351 105.106 470.11 105.161C462.06 105.161 461.36 100.611 461.36 97.1009V71.1009H477.41V58.3409H461.36V41.8809Z" fill="#2A3362"/>
<path d="M0 31.6102C0 22.2402 2.74 14.2402 8.49 8.49023L18.49 18.4902C7.36 29.5802 17.08 64.0602 48.77 95.7802C80.46 127.5 114.96 137.21 126.08 126.1L136.08 136.1C117.32 154.86 74.59 141.55 38.82 105.77C14.01 80.9502 0 52.7902 0 31.6102Z" fill="#009A46"/>
<path d="M63.0602 144.721C53.6902 144.721 45.6902 141.981 39.9302 136.231L49.9302 126.231C61.0402 137.341 95.5202 127.621 127.24 95.9113C158.96 64.2013 168.66 29.7213 157.55 18.6113L167.55 8.61133C186.32 27.3713 173 70.1013 137.22 105.871C112.4 130.721 84.2402 144.721 63.0602 144.721Z" fill="#FF5805"/>
<path d="M140.53 91.5611C134.46 74.0811 122.06 55.4011 105.61 38.9611C69.8399 3.18114 27.1099 -10.1389 8.34991 8.63115C7.01991 9.97115 8.16991 13.2811 10.9299 16.0411C13.6899 18.8011 16.9999 19.9411 18.3299 18.6111C29.4499 7.50115 63.9299 17.2211 95.6399 48.9411C110.64 63.9411 121.82 80.6911 127.21 96.1911C131.93 109.781 131.47 120.741 125.97 126.241C124.63 127.571 125.79 130.891 128.54 133.641C131.29 136.391 134.61 137.551 135.95 136.211C145.56 126.601 147.19 110.721 140.53 91.5611Z" fill="#F5AFCB"/>
<path d="M167.53 8.62976C157.9 -1.00024 142.04 -2.63024 122.86 4.03976C105.39 10.0998 86.6999 22.5098 70.2599 38.9498C34.4899 74.7198 21.1699 117.45 39.9299 136.22C41.2699 137.55 44.5799 136.4 47.3399 133.65C50.0999 130.9 51.2499 127.58 49.9099 126.24C38.7699 115.13 48.5199 80.6498 80.2399 48.9298C95.2399 33.9298 111.99 22.7498 127.49 17.3598C141.08 12.6498 152.04 13.0998 157.55 18.5998C158.88 19.9298 162.2 18.7798 164.95 16.0198C167.7 13.2598 168.86 9.95976 167.53 8.62976Z" fill="#FF9B00"/>
</svg>
