<svg width="693" height="170" viewBox="0 0 693 170" fill="none" xmlns="http://www.w3.org/2000/svg">
<path d="M259.378 38H220.891C218.257 38 216.017 39.915 215.606 42.5172L200.04 141.294C199.731 143.243 201.239 145 203.214 145H221.589C224.222 145 226.462 143.085 226.873 140.477L231.071 113.836C231.476 111.228 233.722 109.313 236.35 109.313H248.534C273.886 109.313 288.518 97.0339 292.34 72.7016C294.062 62.0563 292.413 53.6921 287.432 47.8343C281.962 41.402 272.26 38 259.378 38ZM263.819 74.076C261.714 87.898 251.162 87.898 240.959 87.898H235.151L239.226 62.0844C239.468 60.5242 240.818 59.3752 242.394 59.3752H245.056C252.006 59.3752 258.562 59.3752 261.95 63.3405C263.971 65.7061 264.59 69.2208 263.819 74.076Z" fill="#253B80"/>
<path d="M373.814 73.7391H355.459C353.896 73.7391 352.545 74.8909 352.304 76.4549L351.491 81.627L350.208 79.7524C346.234 73.9423 337.373 72 328.529 72C308.247 72 290.923 87.4766 287.549 109.187C285.795 120.016 288.289 130.372 294.387 137.593C299.98 144.233 307.983 147 317.505 147C333.848 147 342.911 136.413 342.911 136.413L342.092 141.551C341.784 143.516 343.286 145.278 345.242 145.278H361.776C364.404 145.278 366.624 143.358 367.038 140.744L376.958 77.4543C377.272 75.5064 375.776 73.7391 373.814 73.7391ZM348.229 109.729C346.458 120.293 338.136 127.385 327.521 127.385C322.191 127.385 317.931 125.663 315.196 122.399C312.484 119.158 311.452 114.545 312.316 109.407C313.969 98.9329 322.432 91.6096 332.884 91.6096C338.096 91.6096 342.333 93.3544 345.125 96.6462C347.921 99.9718 349.031 104.613 348.229 109.729Z" fill="#253B80"/>
<path d="M471.791 74H453.287C451.522 74 449.863 74.8756 448.863 76.3406L423.342 113.869L412.525 77.8057C411.844 75.5492 409.758 74 407.397 74H389.214C387.004 74 385.469 76.1554 386.172 78.2322L406.554 137.944L387.392 164.948C385.885 167.076 387.404 170 390.007 170H408.488C410.242 170 411.884 169.147 412.879 167.71L474.422 79.0237C475.895 76.9019 474.383 74 471.791 74Z" fill="#253B80"/>
<path d="M532.381 38H493.886C491.258 38 489.018 39.915 488.607 42.5172L473.04 141.294C472.731 143.243 474.239 145 476.203 145H495.957C497.792 145 499.362 143.659 499.649 141.835L504.067 113.836C504.472 111.228 506.718 109.313 509.346 109.313H521.525C546.884 109.313 561.511 97.0339 565.338 72.7016C567.066 62.0563 565.406 53.6921 560.425 47.8343C554.96 41.402 545.263 38 532.381 38ZM536.821 74.076C534.722 87.898 524.17 87.898 513.961 87.898H508.159L512.239 62.0844C512.481 60.5242 513.82 59.3752 515.402 59.3752H518.064C525.008 59.3752 531.571 59.3752 534.959 63.3405C536.979 65.7061 537.592 69.2208 536.821 74.076Z" fill="#179BD7"/>
<path d="M646.794 73.7391H628.45C626.875 73.7391 625.535 74.8909 625.3 76.4549L624.487 81.627L623.198 79.7524C619.224 73.9423 610.369 72 601.524 72C581.241 72 563.922 87.4766 560.548 109.187C558.799 120.016 561.282 130.372 567.38 137.593C572.985 144.233 580.977 147 590.5 147C606.843 147 615.906 136.413 615.906 136.413L615.088 141.551C614.78 143.516 616.282 145.278 618.249 145.278H634.778C637.395 145.278 639.626 143.358 640.035 140.744L649.961 77.4543C650.264 75.5064 648.762 73.7391 646.794 73.7391ZM621.208 109.729C619.449 120.293 611.114 127.385 600.499 127.385C595.18 127.385 590.909 125.663 588.174 122.399C585.461 119.158 584.441 114.545 585.293 109.407C586.957 98.9329 595.409 91.6096 605.862 91.6096C611.075 91.6096 615.312 93.3544 618.103 96.6462C620.911 99.9718 622.021 104.613 621.208 109.729Z" fill="#179BD7"/>
<path d="M668.843 40.7147L653.04 141.294C652.731 143.243 654.24 145 656.204 145H672.091C674.731 145 676.972 143.085 677.377 140.477L692.96 41.7116C693.269 39.7629 691.76 38 689.796 38H672.006C670.436 38.0056 669.085 39.1546 668.843 40.7147Z" fill="#179BD7"/>
<path d="M40.8688 164L43.8078 145.341L37.2611 145.189H6L27.7249 7.5053C27.7923 7.08966 28.0115 6.7021 28.3318 6.42688C28.6521 6.15165 29.0623 6 29.4894 6H82.2001C99.6991 6 111.775 9.63967 118.08 16.8235C121.036 20.1936 122.919 23.7153 123.829 27.5909C124.784 31.6574 124.801 36.516 123.868 42.4417L123.801 42.8742V46.6711L126.757 48.3449C129.246 49.6648 131.224 51.1758 132.742 52.9057C135.27 55.7871 136.906 59.4493 137.597 63.791C138.311 68.2564 138.075 73.5699 136.906 79.5854C135.557 86.5053 133.377 92.5321 130.432 97.4636C127.723 102.008 124.273 105.776 120.176 108.697C116.265 111.472 111.618 113.578 106.364 114.926C101.273 116.252 95.4677 116.92 89.1008 116.92H84.9986C82.0652 116.92 79.2161 117.976 76.9796 119.869C74.7374 121.801 73.2539 124.441 72.7987 127.328L72.4896 129.007L67.2972 161.894L67.0612 163.101C66.9994 163.483 66.8926 163.674 66.7353 163.803C66.5948 163.921 66.3925 164 66.1958 164H40.8688Z" fill="#253B80"/>
<path d="M128.916 43C128.76 44.0099 128.582 45.0424 128.381 46.1031C121.49 81.935 97.9163 94.3134 67.8081 94.3134H52.4782C48.7961 94.3134 45.6934 97.0215 45.1196 100.7L37.2709 151.116L35.0483 165.407C34.6751 167.822 36.5133 170 38.9197 170H66.1091C69.3288 170 72.0639 167.63 72.5708 164.414L72.8382 163.015L77.9574 130.112L78.2861 128.306C78.7874 125.079 81.5281 122.709 84.7478 122.709H88.8142C115.157 122.709 135.779 111.877 141.806 80.5302C144.324 67.4352 143.02 56.5012 136.358 48.8112C134.341 46.4924 131.84 44.5685 128.916 43Z" fill="#179BD7"/>
<path d="M121.774 40.5004C120.719 40.1907 119.63 39.9091 118.513 39.6557C117.391 39.4079 116.241 39.1883 115.057 38.9968C110.913 38.321 106.374 38 101.51 38H60.4565C59.4458 38 58.4853 38.2309 57.6254 38.6476C55.7324 39.5656 54.3253 41.3733 53.9846 43.5865L45.2513 99.3725L45 101C45.5752 97.3282 48.6854 94.6251 52.3765 94.6251H67.7436C97.9251 94.6251 121.557 82.2639 128.464 46.5036C128.671 45.4449 128.844 44.4143 129 43.4063C127.252 42.4714 125.359 41.6718 123.321 40.9903C122.819 40.8214 122.299 40.6581 121.774 40.5004Z" fill="#222D65"/>
<path d="M53.9085 43.3302C54.2506 41.1184 55.6636 39.3118 57.5645 38.4C58.4336 37.9836 59.3924 37.7528 60.4074 37.7528H101.632C106.516 37.7528 111.075 38.0736 115.236 38.749C116.424 38.9403 117.579 39.1598 118.706 39.4075C119.828 39.6607 120.921 39.9421 121.981 40.2517C122.508 40.4092 123.03 40.5725 123.54 40.7357C125.587 41.4167 127.487 42.2215 129.243 43.1501C131.306 29.9411 129.226 20.9475 122.11 12.8038C114.265 3.83832 100.107 0 81.9899 0H29.3934C25.6926 0 22.5357 2.70145 21.9637 6.37656L0.0560103 145.755C-0.375752 148.512 1.74381 151 4.51381 151H36.9857L45.1387 99.0814L53.9085 43.3302Z" fill="#253B80"/>
</svg>
