<svg width="961" height="190" viewBox="0 0 961 190" fill="none" xmlns="http://www.w3.org/2000/svg">
<path fill-rule="evenodd" clip-rule="evenodd" d="M228.799 71.3937C227.282 76.6679 224.343 80.5389 219.981 83.0105C215.613 85.4817 209.488 86.7198 201.587 86.7198H176.485L185.297 56.0699H210.399C218.294 56.0699 223.714 57.3058 226.659 59.7769C229.598 62.2509 230.315 66.1224 228.799 71.3937ZM254.793 70.7333C257.986 59.6426 256.662 51.1276 250.826 45.1958C244.988 39.264 234.759 36.2998 220.151 36.2998H164.117L130.392 153.612H157.615L171.213 106.324H189.065C193.069 106.324 196.22 106.929 198.525 108.137C200.834 109.348 202.186 111.49 202.604 114.562L207.46 153.612H236.628L231.896 117.201C230.932 109.071 226.941 104.293 219.928 102.866C228.869 100.452 236.358 96.438 242.39 90.8353C248.415 85.2354 252.554 78.5363 254.793 70.7333Z" fill="#072654"/>
<path fill-rule="evenodd" clip-rule="evenodd" d="M320.957 111.597C318.682 119.504 315.178 125.548 310.446 129.72C305.708 133.896 300.041 135.981 293.445 135.981C286.72 135.981 282.158 133.923 279.754 129.803C277.337 125.685 277.255 119.728 279.501 111.925C281.741 104.128 285.315 98.0322 290.235 93.6346C295.149 89.2454 300.905 87.0456 307.506 87.0456C314.102 87.0456 318.57 89.1636 320.886 93.3911C323.202 97.6186 323.231 103.687 320.957 111.597ZM332.89 70.0752L329.48 81.9388C328.004 77.6536 325.154 74.2507 320.933 71.7247C316.706 69.1987 311.469 67.9326 305.225 67.9326C297.566 67.9326 290.2 69.774 283.134 73.4536C276.068 77.1355 269.889 82.325 264.605 89.0237C259.32 95.7251 255.446 103.358 252.983 111.925C250.52 120.496 250.026 128.047 251.507 134.581C252.989 141.118 256.198 146.143 261.142 149.658C266.08 153.176 272.441 154.929 280.218 154.929C286.461 154.929 292.411 153.721 298.054 151.304C303.697 148.891 308.488 145.538 312.432 141.255L308.876 153.612H335.212L359.226 70.0752H332.89Z" fill="#072654"/>
<path fill-rule="evenodd" clip-rule="evenodd" d="M453.924 70.0752H377.385L372.035 88.6951H416.577L357.686 136.145L352.66 153.612H431.673L437.028 134.995H389.307L449.092 86.8811L453.924 70.0752Z" fill="#072654"/>
<path fill-rule="evenodd" clip-rule="evenodd" d="M521.309 111.432C518.94 119.668 515.43 125.824 510.786 129.888C506.142 133.951 500.522 135.981 493.927 135.981C480.135 135.981 475.597 127.802 480.3 111.432C482.64 103.303 486.167 97.1798 490.882 93.062C495.601 88.9414 501.316 86.8811 508.035 86.8811C514.631 86.8811 519.081 88.9414 521.374 93.062C523.666 97.1798 523.648 103.303 521.309 111.432ZM536.717 73.204C530.656 69.6913 522.913 67.9326 513.484 67.9326C503.938 67.9326 495.096 69.6913 486.955 73.204C478.813 76.7218 471.882 81.7743 466.162 88.3632C460.436 94.955 456.31 102.643 453.782 111.432C451.254 120.222 450.96 127.907 452.9 134.499C454.834 141.09 458.855 146.143 464.981 149.658C471.1 153.176 478.93 154.929 488.478 154.929C497.906 154.929 506.659 153.176 514.743 149.658C522.814 146.143 529.721 141.09 535.447 134.499C541.166 127.907 545.293 120.222 547.821 111.432C550.349 102.643 550.643 94.955 548.709 88.3632C546.769 81.7743 542.771 76.7218 536.717 73.204Z" fill="#072654"/>
<path fill-rule="evenodd" clip-rule="evenodd" d="M812.173 111.597C809.898 119.504 806.394 125.548 801.662 129.72C796.929 133.896 791.251 135.981 784.655 135.981C777.942 135.981 773.375 133.923 770.97 129.803C768.554 125.685 768.472 119.728 770.717 111.925C772.957 104.128 776.531 98.0322 781.452 93.6346C786.366 89.2454 792.121 87.0456 798.722 87.0456C805.318 87.0456 809.786 89.1636 812.102 93.3911C814.419 97.6186 814.448 103.687 812.173 111.597ZM824.106 70.0752L820.697 81.9388C819.221 77.6536 816.37 74.2507 812.149 71.7247C807.923 69.1987 802.685 67.9326 796.441 67.9326C788.782 67.9326 781.416 69.774 774.35 73.4536C767.284 77.1355 761.106 82.325 755.821 89.0237C750.536 95.7251 746.662 103.358 744.199 111.925C741.736 120.496 741.248 128.047 742.724 134.581C744.205 141.118 747.409 146.143 752.358 149.658C757.297 153.176 763.657 154.929 771.435 154.929C777.677 154.929 783.627 153.721 789.27 151.304C794.913 148.891 799.704 145.538 803.649 141.255L800.093 153.612H826.428L850.442 70.0752H824.106Z" fill="#072654"/>
<path fill-rule="evenodd" clip-rule="evenodd" d="M630.614 92.4844L637.327 69.7467C635.046 68.648 632.025 68.0977 628.257 68.0977C622.243 68.0977 616.452 69.4975 610.874 72.3001C606.083 74.7046 602.003 78.0796 598.558 82.3085L602.05 70.0639L594.425 70.0757H575.723L551.524 153.612H578.224L590.775 109.951C592.603 103.581 595.883 98.6105 600.628 95.0406C605.36 91.4707 611.267 89.6842 618.34 89.6842C622.701 89.6842 626.787 90.6183 630.614 92.4844Z" fill="#072654"/>
<path fill-rule="evenodd" clip-rule="evenodd" d="M704.934 111.925C702.688 119.728 699.208 125.684 694.493 129.802C689.767 133.922 684.112 135.98 677.516 135.98C670.915 135.98 666.418 133.895 664.025 129.719C661.627 125.547 661.568 119.505 663.843 111.595C666.118 103.686 669.656 97.6172 674.466 93.3897C679.274 89.1622 684.982 87.0443 691.584 87.0443C698.061 87.0443 702.465 89.2445 704.798 93.6365C707.126 98.0309 707.174 104.13 704.934 111.925ZM723.592 73.4522C718.637 69.7727 712.329 67.9346 704.675 67.9346C697.956 67.9346 691.56 69.3619 685.505 72.2169C679.433 75.0771 674.513 78.9704 670.738 83.9155L670.823 83.3676L675.309 70.0625H670.147V70.0743H649.246L642.61 93.1746C642.533 93.4431 642.469 93.6937 642.392 93.9651L615.016 189.201H641.71L655.495 141.257C656.847 145.536 659.657 148.89 663.914 151.304C668.169 153.72 673.419 154.928 679.668 154.928C687.445 154.928 694.84 153.175 701.865 149.657C708.884 146.144 714.986 141.117 720.16 134.58C725.338 128.048 729.16 120.494 731.622 111.925C734.086 103.357 734.597 95.7242 733.168 89.0228C731.74 82.3237 728.542 77.1346 723.592 73.4522Z" fill="#072654"/>
<path fill-rule="evenodd" clip-rule="evenodd" d="M960.983 70.0993L961 70.0762H944.831C944.314 70.0762 943.858 70.0899 943.386 70.0993H934.994L930.702 75.6723C930.358 76.0921 930.015 76.5148 929.644 77.005L929.177 77.6504L895.072 121.924L888.001 70.0762H860.066L874.212 148.862L842.971 189.202H843.862H859.813H870.803L878.374 179.205C878.598 178.907 878.789 178.663 879.027 178.349L887.862 166.673L888.115 166.338L927.648 114.101L960.956 70.1338L961 70.0993H960.983Z" fill="#072654"/>
<path fill-rule="evenodd" clip-rule="evenodd" d="M61.7886 49.7388L53.7974 77.1512L99.5233 49.5847L69.6201 153.586L99.9869 153.612L144.162 0L61.7886 49.7388Z" fill="#3395FF"/>
<path fill-rule="evenodd" clip-rule="evenodd" d="M12.5716 109.891L0 153.612H62.245C62.245 153.612 87.7048 64.6925 87.7119 64.667C87.6881 64.6812 12.5716 109.891 12.5716 109.891Z" fill="#072654"/>
</svg>
