<svg width="360" height="150" viewBox="0 0 360 150" fill="none" xmlns="http://www.w3.org/2000/svg">
<g clip-path="url(#clip0_530_40)">
<path fill-rule="evenodd" clip-rule="evenodd" d="M169.8 25.7L194.9 20.3V0L169.8 5.3V25.7Z" fill="#533AFD"/>
<path fill-rule="evenodd" clip-rule="evenodd" d="M360 77.4006C360 51.8006 347.6 31.6006 323.9 31.6006C300.1 31.6006 285.7 51.8006 285.7 77.2006C285.7 107.3 302.7 122.5 327.1 122.5C339 122.5 348 119.8 354.8 116V96.0006C348 99.4006 340.2 101.5 330.3 101.5C320.6 101.5 312 98.1006 310.9 86.3006H359.8C359.8 85.0006 360 79.8006 360 77.4006ZM310.6 67.9006C310.6 56.6006 317.5 51.9006 323.8 51.9006C329.9 51.9006 336.4 56.6006 336.4 67.9006H310.6Z" fill="#533AFD"/>
<path fill-rule="evenodd" clip-rule="evenodd" d="M247.1 31.6006C237.3 31.6006 231 36.2006 227.5 39.4006L226.2 33.2006H204.2V149.8L229.2 144.5L229.3 116.2C232.9 118.8 238.2 122.5 247 122.5C264.9 122.5 281.2 108.1 281.2 76.4006C281.1 47.4006 264.6 31.6006 247.1 31.6006ZM241.1 100.5C235.2 100.5 231.7 98.4006 229.3 95.8006L229.2 58.7006C231.8 55.8006 235.4 53.8006 241.1 53.8006C250.2 53.8006 256.5 64.0006 256.5 77.1006C256.5 90.5006 250.3 100.5 241.1 100.5Z" fill="#533AFD"/>
<path d="M194.9 33.2998H169.8V120.8H194.9V33.2998Z" fill="#533AFD"/>
<path fill-rule="evenodd" clip-rule="evenodd" d="M142.9 40.7003L141.3 33.3003H119.7V120.8H144.7V61.5003C150.6 53.8003 160.6 55.2003 163.7 56.3003V33.3003C160.5 32.1003 148.8 29.9003 142.9 40.7003Z" fill="#533AFD"/>
<path fill-rule="evenodd" clip-rule="evenodd" d="M92.8999 11.6006L68.4999 16.8006L68.3999 96.9006C68.3999 111.7 79.4999 122.6 94.2999 122.6C102.5 122.6 108.5 121.1 111.8 119.3V99.0006C108.6 100.3 92.7999 104.9 92.7999 90.1006V54.6006H111.8V33.3006H92.7999L92.8999 11.6006Z" fill="#533AFD"/>
<path fill-rule="evenodd" clip-rule="evenodd" d="M25.3 58.7006C25.3 54.8006 28.5 53.3006 33.8 53.3006C41.4 53.3006 51 55.6006 58.6 59.7006V36.2006C50.3 32.9006 42.1 31.6006 33.8 31.6006C13.5 31.6006 0 42.2006 0 59.9006C0 87.5006 38 83.1006 38 95.0006C38 99.6006 34 101.1 28.4 101.1C20.1 101.1 9.5 97.7006 1.1 93.1006V116.9C10.4 120.9 19.8 122.6 28.4 122.6C49.2 122.6 63.5 112.3 63.5 94.4006C63.4 64.6006 25.3 69.9006 25.3 58.7006Z" fill="#533AFD"/>
</g>
<defs>
<clipPath id="clip0_530_40">
<rect width="360" height="150" fill="white"/>
</clipPath>
</defs>
</svg>
